<?xml version="1.0" encoding="utf-8"?>
<!-- Generator: Adobe Illustrator 15.0.0, SVG Export Plug-In . SVG Version: 6.00 Build 0)  -->
<!DOCTYPE svg PUBLIC "-//W3C//DTD SVG 1.1//EN" "http://www.w3.org/Graphics/SVG/1.1/DTD/svg11.dtd">
<svg version="1.1" id="Ebene_1" xmlns="http://www.w3.org/2000/svg" xmlns:xlink="http://www.w3.org/1999/xlink" x="0px" y="0px"
	 width="283.46px" height="105.788px" viewBox="0 0 283.46 105.788" enable-background="new 0 0 283.46 105.788"
	 xml:space="preserve">
<g>
	<polygon fill="#FFFFFF" points="137.556,59.361 156.203,59.361 146.879,36.85 	"/>
	<path fill="#FFFFFF" d="M231.551,36.472c-2.801-1.596-5.936-2.394-9.408-2.394s-6.607,0.798-9.408,2.394
		c-2.801,1.596-4.998,3.822-6.594,6.678s-2.395,6.104-2.395,9.744c0,3.641,0.799,6.888,2.395,9.744
		c1.596,2.856,3.793,5.082,6.594,6.678s5.936,2.394,9.408,2.394s6.607-0.798,9.408-2.394c2.799-1.596,4.998-3.822,6.594-6.678
		c1.596-2.856,2.395-6.104,2.395-9.744c0-3.64-0.799-6.888-2.395-9.744S234.35,38.068,231.551,36.472z"/>
	<path fill="#FFFFFF" d="M0,0v105.788h283.46V0H0z M86.653,82.294l-0.084-35.28L69.265,76.078h-6.132L45.913,47.77v34.524H33.145
		v-58.8h11.256l22.008,36.54l21.672-36.54h11.172l0.168,58.8H86.653z M165.695,82.293l-5.209-12.6h-27.299l-5.208,12.6h-13.944
		l26.208-58.8h13.44l26.291,58.8H165.695z M250.115,68.476c-2.801,4.62-6.637,8.246-11.508,10.878
		c-4.873,2.633-10.361,3.948-16.465,3.948s-11.605-1.315-16.506-3.948c-4.9-2.632-8.736-6.258-11.508-10.878
		c-2.771-4.62-4.158-9.813-4.158-15.582c0-5.767,1.387-10.962,4.158-15.582s6.607-8.245,11.508-10.878
		c4.9-2.632,10.402-3.948,16.506-3.948s11.592,1.316,16.465,3.948c4.871,2.633,8.707,6.258,11.508,10.878
		c2.799,4.62,4.199,9.815,4.199,15.582C254.314,58.663,252.914,63.856,250.115,68.476z"/>
</g>
</svg>
